*
*
G04 PADS VX.2.4 Build Number: 11282995 generated Gerber (RS-274-X) file*
G04 PC Version=2.1*
*
%IN "4_17_no copper.pcb"*%
*
%MOIN*%
*
%FSLAX35Y35*%
*
*
*
*
G04 PC Standard Apertures*
*
*
G04 Thermal Relief Aperture macro.*
%AMTER*
1,1,$1,0,0*
1,0,$1-$2,0,0*
21,0,$3,$4,0,0,45*
21,0,$3,$4,0,0,135*
%
*
*
G04 Annular Aperture macro.*
%AMANN*
1,1,$1,0,0*
1,0,$2,0,0*
%
*
*
G04 Odd Aperture macro.*
%AMODD*
1,1,$1,0,0*
1,0,$1-0.005,0,0*
%
*
*
G04 PC Custom Aperture Macros*
*
*
*
*
*
*
G04 PC Aperture Table*
*
%ADD010C,0.001*%
%ADD037C,0.00787*%
%ADD040C,0.01969*%
%ADD062C,0.00394*%
*
*
*
*
G04 PC Circuitry*
G04 Layer Name 4_17_no copper.pcb - circuitry*
%LPD*%
*
*
G04 PC Custom Flashes*
G04 Layer Name 4_17_no copper.pcb - flashes*
%LPD*%
*
*
G04 PC Circuitry*
G04 Layer Name 4_17_no copper.pcb - circuitry*
%LPD*%
*
G54D10*
G54D37*
G01X80669Y88504D02*
Y91260D01*
X79422Y92507*
Y102151*
X86732Y83110D02*
X90315D01*
X91181Y83976*
X94764*
X92677Y86181D02*
Y96201D01*
X92047Y96831*
Y106850*
X94764Y83976D02*
Y85433D01*
X95315Y85984*
Y95532*
X95276Y95572*
Y104803*
X79422Y102151D02*
X81063Y103792D01*
Y106850*
X81400Y100500D02*
X88807D01*
X89370Y101063*
Y106969*
X86535D02*
X88543Y108976D01*
X94528*
X95276Y104803D02*
Y108228D01*
X94528Y108976*
G54D40*
X80669Y88504D03*
X86732Y83110D03*
X92677Y86181D03*
X94764Y83976D03*
X81063Y106850D03*
X81400Y100500D03*
X86535Y106969D03*
X89370D03*
X92047Y106850D03*
X95276Y104803D03*
G54D62*
X96654Y109921D02*
G75*
G03X96457Y110118I-197J0D01*
G01X77598*
G03X77402Y109921I0J-197*
G01Y82126*
G03X77598Y81929I196J0*
G01X96457*
G03X96654Y82126I-0J197*
G01Y109921*
X94252Y86181D02*
X94252D01*
X91627Y87355D02*
G03X94252Y86181I1050J-1174D01*
G01X91627Y87355D02*
G03X91693Y87502I-131J147D01*
G01Y95712*
G03X91635Y95851I-197J-0*
G01X91351Y96135*
X91063Y96831D02*
G03X91351Y96135I984J-0D01*
G01X91063Y96831D02*
Y105530D01*
G03X90997Y105677I-197J-0*
G01X90812Y105874D02*
G03X90997Y105677I1235J976D01*
G01X90812Y105874D02*
G03X90515Y105887I-154J-123D01*
G01X90420Y105795D02*
G03X90515Y105887I-1050J1173D01*
G01X90420Y105795D02*
G03X90354Y105648I131J-147D01*
G01Y101063*
X90066Y100367D02*
G03X90354Y101063I-696J696D01*
G01X90066Y100367D02*
X89503Y99804D01*
X88807Y99516D02*
G03X89503Y99804I0J984D01*
G01X88807Y99516D02*
X82721D01*
G03X82574Y99450I-0J-197*
G01X80692Y99093D02*
G03X82574Y99450I708J1407D01*
G01X80692Y99093D02*
G03X80406Y98918I-89J-175D01*
G01Y92996*
G03X80464Y92857I197J0*
G01X81365Y91956*
X81654Y91260D02*
G03X81365Y91956I-985J-0D01*
G01X81654Y91260D02*
Y89824D01*
G03X81719Y89678I196J0*
G01X79619D02*
G03X81719I1050J-1174D01*
G01X79619D02*
G03X79685Y89824I-131J146D01*
G01Y90771*
G03X79627Y90910I-197J-0*
G01X78726Y91811*
X78438Y92507D02*
G03X78726Y91811I984J0D01*
G01X78438Y92507D02*
Y102151D01*
X78726Y102847D02*
G03X78438Y102151I696J-696D01*
G01X78726Y102847D02*
X80021Y104142D01*
G03X80079Y104281I-139J139*
G01Y105530*
G03X80013Y105677I-197J-0*
G01X82113D02*
G03X80013I-1050J1173D01*
G01X82113D02*
G03X82047Y105530I131J-147D01*
G01Y103792*
X81759Y103096D02*
G03X82047Y103792I-696J696D01*
G01X81759Y103096D02*
X81063Y102400D01*
G03X81224Y102065I139J-139*
G01X82574Y101550D02*
G03X81224Y102065I-1174J-1050D01*
G01X82574Y101550D02*
G03X82721Y101484I147J131D01*
G01X88189*
G03X88386Y101681I-0J197*
G01Y105648*
G03X88320Y105795I-197J-0*
G01X90605Y107945D02*
G03X88320Y105795I-1235J-976D01*
G01X90605Y107945D02*
G03X90903Y107932I155J122D01*
G01X93097Y105677D02*
G03X90903Y107932I-1050J1173D01*
G01X93097Y105677D02*
G03X93032Y105530I131J-147D01*
G01Y97320*
G03X93089Y97181I196J-0*
G01X93373Y96897*
X93661Y96201D02*
G03X93373Y96897I-984J-0D01*
G01X93661Y96201D02*
Y87502D01*
G03X93727Y87355I197J-0*
G01X94252Y86181D02*
G03X93727Y87355I-1575J0D01*
G01X77402Y109920D02*
X96654D01*
X77402Y109566D02*
X96654D01*
X77402Y109211D02*
X96654D01*
X77402Y108857D02*
X96654D01*
X89726Y108503D02*
X96654D01*
X92939Y108148D02*
X96654D01*
X93308Y107794D02*
X96654D01*
X93508Y107440D02*
X96654D01*
X93604Y107085D02*
X96654D01*
X93618Y106731D02*
X96654D01*
X93549Y106377D02*
X96654D01*
X93387Y106022D02*
X96654D01*
X93088Y105668D02*
X96654D01*
X93032Y105314D02*
X96654D01*
X93032Y104959D02*
X96654D01*
X93032Y104605D02*
X96654D01*
X93032Y104251D02*
X96654D01*
X93032Y103896D02*
X96654D01*
X93032Y103542D02*
X96654D01*
X93032Y103188D02*
X96654D01*
X93032Y102833D02*
X96654D01*
X93032Y102479D02*
X96654D01*
X93032Y102125D02*
X96654D01*
X93032Y101770D02*
X96654D01*
X93032Y101416D02*
X96654D01*
X93032Y101062D02*
X96654D01*
X93032Y100707D02*
X96654D01*
X93032Y100353D02*
X96654D01*
X93032Y99999D02*
X96654D01*
X93032Y99644D02*
X96654D01*
X93032Y99290D02*
X96654D01*
X93032Y98936D02*
X96654D01*
X93032Y98581D02*
X96654D01*
X93032Y98227D02*
X96654D01*
X93032Y97873D02*
X96654D01*
X93032Y97518D02*
X96654D01*
X93106Y97164D02*
X96654D01*
X93450Y96810D02*
X96654D01*
X93628Y96455D02*
X96654D01*
X93661Y96101D02*
X96654D01*
X93661Y95747D02*
X96654D01*
X93661Y95392D02*
X96654D01*
X93661Y95038D02*
X96654D01*
X93661Y94684D02*
X96654D01*
X93661Y94329D02*
X96654D01*
X93661Y93975D02*
X96654D01*
X93661Y93621D02*
X96654D01*
X93661Y93266D02*
X96654D01*
X93661Y92912D02*
X96654D01*
X93661Y92558D02*
X96654D01*
X93661Y92203D02*
X96654D01*
X93661Y91849D02*
X96654D01*
X93661Y91495D02*
X96654D01*
X93661Y91140D02*
X96654D01*
X93661Y90786D02*
X96654D01*
X93661Y90432D02*
X96654D01*
X93661Y90077D02*
X96654D01*
X93661Y89723D02*
X96654D01*
X93661Y89369D02*
X96654D01*
X93661Y89014D02*
X96654D01*
X93661Y88660D02*
X96654D01*
X93661Y88306D02*
X96654D01*
X93661Y87951D02*
X96654D01*
X93661Y87597D02*
X96654D01*
X93840Y87243D02*
X96654D01*
X94084Y86888D02*
X96654D01*
X94212Y86534D02*
X96654D01*
X94252Y86180D02*
X96654D01*
X94211Y85825D02*
X96654D01*
X94083Y85471D02*
X96654D01*
X93838Y85117D02*
X96654D01*
X93361Y84762D02*
X96654D01*
X77402Y84408D02*
X96654D01*
X77402Y84054D02*
X96654D01*
X77402Y83699D02*
X96654D01*
X77402Y83345D02*
X96654D01*
X77402Y82991D02*
X96654D01*
X77402Y82637D02*
X96654D01*
X77402Y82282D02*
X96654D01*
X77402Y84762D02*
X91993D01*
X80406Y95392D02*
X91693D01*
X80406Y95038D02*
X91693D01*
X80406Y94684D02*
X91693D01*
X80406Y94329D02*
X91693D01*
X80406Y93975D02*
X91693D01*
X80406Y93621D02*
X91693D01*
X80406Y93266D02*
X91693D01*
X80425Y92912D02*
X91693D01*
X80763Y92558D02*
X91693D01*
X81118Y92203D02*
X91693D01*
X81458Y91849D02*
X91693D01*
X81625Y91495D02*
X91693D01*
X81654Y91140D02*
X91693D01*
X81654Y90786D02*
X91693D01*
X81654Y90432D02*
X91693D01*
X81654Y90077D02*
X91693D01*
X81682Y89723D02*
X91693D01*
X81985Y89369D02*
X91693D01*
X82159Y89014D02*
X91693D01*
X82236Y88660D02*
X91693D01*
X82232Y88306D02*
X91693D01*
X82144Y87951D02*
X91693D01*
X81957Y87597D02*
X91693D01*
X80406Y95747D02*
X91690D01*
X77402Y85117D02*
X91516D01*
X81612Y87243D02*
X91514D01*
X80406Y96101D02*
X91385D01*
X77402Y85471D02*
X91271D01*
X77402Y86888D02*
X91270D01*
X90413Y108148D02*
X91155D01*
X77402Y85825D02*
X91143D01*
X77402Y86534D02*
X91142D01*
X80406Y96455D02*
X91137D01*
X77402Y86180D02*
X91102D01*
X80406Y96810D02*
X91063D01*
X90354Y105314D02*
X91063D01*
X90354Y104959D02*
X91063D01*
X90354Y104605D02*
X91063D01*
X90354Y104251D02*
X91063D01*
X90354Y103896D02*
X91063D01*
X90354Y103542D02*
X91063D01*
X90354Y103188D02*
X91063D01*
X90354Y102833D02*
X91063D01*
X90354Y102479D02*
X91063D01*
X90354Y102125D02*
X91063D01*
X90354Y101770D02*
X91063D01*
X90354Y101416D02*
X91063D01*
X90354Y101062D02*
X91063D01*
X90288Y100707D02*
X91063D01*
X90052Y100353D02*
X91063D01*
X89698Y99999D02*
X91063D01*
X89294Y99644D02*
X91063D01*
X82408Y99290D02*
X91063D01*
X81582Y98936D02*
X91063D01*
X80406Y98581D02*
X91063D01*
X80406Y98227D02*
X91063D01*
X80406Y97873D02*
X91063D01*
X80406Y97518D02*
X91063D01*
X80406Y97164D02*
X91063D01*
X90355Y105668D02*
X91006D01*
X77402Y108503D02*
X89014D01*
X82047Y105314D02*
X88386D01*
X82047Y104959D02*
X88386D01*
X82047Y104605D02*
X88386D01*
X82047Y104251D02*
X88386D01*
X82047Y103896D02*
X88386D01*
X82015Y103542D02*
X88386D01*
X81840Y103188D02*
X88386D01*
X81496Y102833D02*
X88386D01*
X81142Y102479D02*
X88386D01*
X81059Y102125D02*
X88386D01*
X82331Y101770D02*
X88386D01*
X82104Y105668D02*
X88385D01*
X81955Y108148D02*
X88327D01*
X82403Y106022D02*
X88111D01*
X82324Y107794D02*
X88029D01*
X82565Y106377D02*
X87911D01*
X82523Y107440D02*
X87867D01*
X82633Y106731D02*
X87813D01*
X82620Y107085D02*
X87800D01*
X80407Y98936D02*
X81218D01*
X77402Y108148D02*
X80171D01*
X77402Y105314D02*
X80079D01*
X77402Y104959D02*
X80079D01*
X77402Y104605D02*
X80079D01*
X77402Y104251D02*
X80076D01*
X77402Y105668D02*
X80022D01*
X77402Y107794D02*
X79802D01*
X77402Y103896D02*
X79775D01*
X77402Y87243D02*
X79726D01*
X77402Y106022D02*
X79723D01*
X77402Y90432D02*
X79685D01*
X77402Y90077D02*
X79685D01*
X77402Y90786D02*
X79684D01*
X77402Y89723D02*
X79657D01*
X77402Y107440D02*
X79603D01*
X77402Y106377D02*
X79561D01*
X77402Y107085D02*
X79506D01*
X77402Y106731D02*
X79493D01*
X77402Y103542D02*
X79421D01*
X77402Y91140D02*
X79397D01*
X77402Y87597D02*
X79382D01*
X77402Y89369D02*
X79353D01*
X77402Y87951D02*
X79195D01*
X77402Y89014D02*
X79180D01*
X77402Y88306D02*
X79107D01*
X77402Y88660D02*
X79102D01*
X77402Y103188D02*
X79067D01*
X77402Y91495D02*
X79042D01*
X77402Y102833D02*
X78713D01*
X77402Y91849D02*
X78690D01*
X77402Y102479D02*
X78494D01*
X77402Y92203D02*
X78486D01*
X77402Y102125D02*
X78438D01*
X77402Y101770D02*
X78438D01*
X77402Y101416D02*
X78438D01*
X77402Y101062D02*
X78438D01*
X77402Y100707D02*
X78438D01*
X77402Y100353D02*
X78438D01*
X77402Y99999D02*
X78438D01*
X77402Y99644D02*
X78438D01*
X77402Y99290D02*
X78438D01*
X77402Y98936D02*
X78438D01*
X77402Y98581D02*
X78438D01*
X77402Y98227D02*
X78438D01*
X77402Y97873D02*
X78438D01*
X77402Y97518D02*
X78438D01*
X77402Y97164D02*
X78438D01*
X77402Y96810D02*
X78438D01*
X77402Y96455D02*
X78438D01*
X77402Y96101D02*
X78438D01*
X77402Y95747D02*
X78438D01*
X77402Y95392D02*
X78438D01*
X77402Y95038D02*
X78438D01*
X77402Y94684D02*
X78438D01*
X77402Y94329D02*
X78438D01*
X77402Y93975D02*
X78438D01*
X77402Y93621D02*
X78438D01*
X77402Y93266D02*
X78438D01*
X77402Y92912D02*
X78438D01*
X77402Y92558D02*
X78438D01*
G74*
X0Y0D02*
M02*
